<?xml version="1.0" standalone="no"?>
<!DOCTYPE svg PUBLIC "-//W3C//DTD SVG 20010904//EN"
 "http://www.w3.org/TR/2001/REC-SVG-20010904/DTD/svg10.dtd">
<svg version="1.0" xmlns="http://www.w3.org/2000/svg"
 width="277.000000pt" height="132.000000pt" viewBox="0 0 277.000000 132.000000"
 preserveAspectRatio="xMidYMid meet">
<metadata>
Created by potrace 1.10, written by Peter Selinger 2001-2011
</metadata>
<g transform="translate(0.000000,132.000000) scale(0.100000,-0.100000)"
fill="#000000" stroke="none">
<path d="M660 1182 c-19 -9 -43 -31 -53 -49 -21 -37 -25 -111 -7 -153 l13 -31
17 49 c23 64 50 100 112 148 43 32 48 39 32 45 -33 13 -78 10 -114 -9z"/>
<path d="M514 1140 c-38 -24 -59 -69 -51 -108 l6 -29 -52 4 c-40 3 -62 -1 -97
-19 -62 -32 -62 -46 -1 -40 52 5 101 -3 101 -16 0 -4 -25 -27 -55 -52 -48 -40
-55 -49 -55 -82 0 -20 -4 -48 -10 -62 -11 -30 0 -34 23 -8 10 11 17 35 17 59
0 37 6 46 56 92 72 66 108 85 150 78 32 -5 33 -5 23 19 -5 14 -9 61 -9 105 0
43 -3 79 -7 79 -5 0 -22 -9 -39 -20z m6 -105 c0 -19 -4 -35 -10 -35 -11 0 -14
53 -3 63 11 12 13 8 13 -28z"/>
<path d="M800 1140 c-55 -26 -105 -73 -131 -122 -33 -65 -24 -75 26 -29 25 23
66 51 91 61 53 23 144 39 180 32 24 -4 25 -3 15 17 -30 55 -111 73 -181 41z"/>
<path d="M849 1030 c-54 -9 -102 -30 -142 -63 l-28 -22 98 -1 c86 0 106 -3
160 -28 85 -39 146 -105 169 -182 l18 -59 19 60 c37 120 1 216 -103 267 -62
30 -123 39 -191 28z m149 -52 c47 -14 99 -62 112 -104 7 -20 10 -38 7 -41 -3
-3 -27 15 -52 41 -44 43 -137 96 -169 96 -20 0 -30 17 -14 23 16 6 70 -1 116
-15z"/>
<path d="M670 901 c0 -5 15 -12 33 -15 40 -7 84 -50 96 -93 13 -46 -4 -114
-59 -234 -69 -151 -85 -211 -71 -261 15 -48 66 -84 142 -100 57 -12 169 -4
169 13 0 5 -8 9 -19 9 -29 0 -67 36 -86 82 -15 38 -16 67 -10 254 7 189 6 214
-10 244 -10 19 -27 42 -39 53 -21 19 -20 19 13 0 79 -42 94 -111 71 -328 -13
-127 -5 -176 32 -196 27 -15 32 -6 8 16 -31 28 -24 56 36 141 95 131 113 198
79 281 -21 50 -41 71 -97 99 -68 34 -288 61 -288 35z m312 -99 c36 -34 42 -45
46 -94 3 -44 -1 -64 -21 -104 -14 -27 -34 -58 -46 -68 l-21 -19 6 109 c6 95 4
116 -14 162 -25 65 -10 70 50 14z m-155 -319 c-2 -147 0 -173 17 -206 10 -21
16 -41 12 -44 -13 -13 -115 28 -137 55 -27 35 -22 81 24 188 44 101 78 174 83
174 1 0 2 -75 1 -167z"/>
<path d="M692 814 c53 -121 -17 -235 -145 -236 l-53 -1 7 -54 c9 -67 13 -72
31 -37 22 45 61 67 127 72 52 4 60 7 71 31 16 33 25 138 16 184 -6 34 -46 87
-65 87 -5 0 -1 -21 11 -46z"/>
<path d="M408 823 c-2 -5 -1 -24 2 -43 l5 -35 43 43 43 42 -45 0 c-25 0 -46
-3 -48 -7z"/>
<path d="M243 594 l-42 -15 37 -52 c52 -74 158 -177 219 -215 l52 -31 -4 27
c-2 15 -7 45 -10 67 l-7 40 -20 -28 c-26 -35 -51 -34 -78 3 -26 36 -19 53 16
40 37 -14 41 -13 48 16 9 35 4 38 -34 19 -41 -21 -82 -12 -115 27 -26 31 -32
67 -15 99 12 22 9 22 -47 3z"/>
<path d="M1405 503 l-60 -4 3 -129 c3 -117 1 -129 -15 -133 -10 -3 34 -5 98
-6 l116 -1 11 37 c13 43 9 55 -9 21 -17 -33 -28 -38 -86 -38 l-53 0 0 55 0 55
33 0 c36 0 51 -8 60 -30 3 -8 5 8 5 35 0 28 -2 43 -5 35 -9 -22 -24 -30 -60
-30 l-33 0 0 61 c0 57 1 60 22 57 12 -2 28 -14 35 -28 12 -24 13 -24 13 13 0
20 -3 36 -7 35 -5 -1 -35 -3 -68 -5z"/>
<path d="M1714 495 c-28 -75 -108 -242 -121 -252 -14 -11 -10 -13 28 -13 31 0
40 3 29 10 -11 7 -12 15 -4 37 9 26 14 28 58 28 45 0 50 -2 59 -29 7 -21 6
-30 -4 -37 -9 -5 10 -9 51 -9 51 1 61 3 46 11 -17 10 -58 91 -112 219 -19 46
-24 52 -30 35z m17 -130 l17 -45 -43 0 -43 0 21 50 c11 27 23 47 26 44 3 -3
13 -25 22 -49z"/>
<path d="M1943 498 c-28 -13 -43 -55 -31 -88 5 -15 34 -41 69 -64 51 -33 60
-43 57 -65 -6 -55 -108 -49 -116 7 -5 35 -22 25 -22 -13 0 -30 4 -35 28 -41
15 -3 33 -7 40 -10 22 -6 70 8 91 28 14 13 21 31 21 58 0 38 -3 42 -65 81 -49
31 -65 46 -65 64 0 40 69 49 94 13 l16 -22 0 26 c0 14 -7 29 -16 32 -24 9 -76
6 -101 -6z"/>
<path d="M2121 470 c0 -19 3 -28 6 -20 8 24 35 40 65 40 l28 0 0 -124 c0 -110
-2 -125 -17 -129 -10 -3 11 -5 47 -5 36 0 57 2 48 5 -16 4 -18 19 -18 129 l0
124 28 0 c30 0 57 -16 65 -40 3 -8 6 1 6 20 l1 35 -130 0 -130 0 1 -35z"/>
<path d="M1058 493 c9 -3 12 -37 12 -121 l-1 -117 -19 24 c-11 13 -20 34 -20
47 0 12 -5 26 -12 30 -17 11 -2 -56 21 -86 22 -31 92 -52 144 -43 51 8 97 46
97 82 0 30 -32 71 -56 71 -13 0 -13 3 0 22 23 32 20 54 -10 77 -22 17 -40 21
-98 20 -39 0 -65 -3 -58 -6z m120 -56 c2 -14 -3 -31 -11 -38 -12 -11 -9 -16
17 -34 56 -38 38 -108 -31 -121 l-33 -6 0 119 c0 66 3 123 7 126 12 13 48 -20
51 -46z"/>
<path d="M2426 478 c54 -61 84 -124 84 -177 0 -44 -3 -53 -22 -61 -17 -6 -7
-9 42 -9 49 0 61 2 48 10 -13 7 -18 23 -18 59 0 42 7 61 44 119 25 38 50 71
58 74 7 3 -4 6 -24 6 -27 1 -36 -3 -32 -12 5 -14 -43 -107 -55 -107 -9 0 -56
92 -54 108 0 8 -14 12 -45 12 l-45 0 19 -22z"/>
</g>
</svg>
